<?xml version="1.0" standalone="no"?>
<!DOCTYPE svg PUBLIC "-//W3C//DTD SVG 20010904//EN"
 "http://www.w3.org/TR/2001/REC-SVG-20010904/DTD/svg10.dtd">
<svg version="1.0" xmlns="http://www.w3.org/2000/svg"
 width="512.000000pt" height="512.000000pt" viewBox="0 0 512.000000 512.000000"
 preserveAspectRatio="xMidYMid meet">

<g transform="translate(0.000000,512.000000) scale(0.100000,-0.100000)"
fill="#000000" stroke="none">
<path d="M1312 4546 c-460 -88 -799 -425 -877 -874 -19 -106 -19 -301 -1 -413
77 -472 392 -1010 960 -1638 160 -177 541 -550 737 -721 205 -179 414 -350
429 -350 15 0 224 171 429 350 196 171 577 544 737 721 578 639 897 1191 965
1668 17 118 6 354 -20 454 -104 394 -386 680 -776 784 -89 23 -118 26 -260 26
-141 0 -172 -3 -256 -25 -324 -87 -577 -309 -745 -653 -35 -72 -64 -137 -64
-143 0 -7 -4 -12 -10 -12 -5 0 -10 5 -10 11 0 24 -114 247 -165 323 -161 240
-387 406 -641 472 -123 32 -320 41 -432 20z"/>
</g>
</svg>
